<svg width="49" height="49" viewBox="0 0 49 49" fill="none" xmlns="http://www.w3.org/2000/svg">
<path d="M38.8594 5.11752C38.9516 5.18944 39.0438 5.26136 39.1387 5.33546C40.2834 6.24684 41.4212 7.24377 42.3399 8.38705C42.4357 8.50271 42.5315 8.61834 42.6274 8.73394C46.2197 13.1025 48.1929 18.4732 48.1802 24.1348C48.1801 24.2801 48.1801 24.2801 48.18 24.4283C48.1625 30.9072 45.5258 36.8711 41.0149 41.4845C40.4658 42.0218 39.8858 42.5074 39.2813 42.9808C39.1762 43.0654 39.0711 43.1499 38.9628 43.2371C35.1923 46.2429 30.1991 48.2326 25.347 48.2794C25.2577 48.2804 25.1685 48.2814 25.0765 48.2825C18.0904 48.3466 11.8474 46.0474 6.81667 41.1285C6.27931 40.5794 5.79375 39.9994 5.32033 39.3949C5.23577 39.2898 5.15121 39.1847 5.06408 39.0764C2.93106 36.401 1.49148 33.2852 0.640159 29.9818C0.616248 29.8898 0.592337 29.7978 0.567701 29.7031C0.131899 27.8994 -0.0118622 26.0906 0.000754798 24.2403C0.00107557 24.1396 0.00139634 24.0389 0.00172683 23.9352C0.00936666 22.3065 0.101466 20.7376 0.468772 19.1449C0.491936 19.0442 0.515099 18.9436 0.538965 18.8399C1.7834 13.62 4.65688 8.76155 8.90627 5.43392C9.01137 5.34936 9.11646 5.26479 9.22474 5.17767C12.2403 2.77342 15.7983 1.26097 19.5586 0.476891C19.6459 0.458129 19.7333 0.439367 19.8233 0.420037C26.3439 -0.912375 33.6895 0.997985 38.8594 5.11752ZM16.3027 10.5199C15.0986 12.1538 14.6923 14.0696 14.9748 16.0661C15.1157 16.7848 15.3036 17.4472 15.6563 18.0902C15.7083 18.1857 15.7604 18.2813 15.8141 18.3798C16.4254 19.4203 17.223 20.0899 18.3985 20.4105C19.2339 20.5476 20.0013 20.2587 20.6726 19.7777C21.9021 18.7521 22.5971 17.2103 22.746 15.6274C22.8361 13.7631 22.5282 11.9542 21.3252 10.4569C20.656 9.74621 19.81 9.32261 18.8467 9.19125C17.8466 9.30664 16.9513 9.74937 16.3027 10.5199ZM26.7041 10.6678C26.2753 11.2373 26.0095 11.8278 25.7813 12.5003C25.7476 12.5952 25.7138 12.6901 25.6791 12.7879C25.139 14.5631 25.4121 16.4708 26.1768 18.1297C26.7323 19.1668 27.4694 19.9229 28.5762 20.338C29.5547 20.5302 30.2474 20.3472 31.0959 19.837C32.2425 19.0258 32.9062 17.62 33.197 16.2708C33.4935 14.29 33.1725 12.2812 31.9804 10.6347C31.3199 9.81217 30.4106 9.32166 29.3672 9.19125C28.283 9.32677 27.4108 9.84183 26.7041 10.6678ZM36.3281 18.1956C35.0773 19.8844 34.4134 21.7521 34.6934 23.8675C34.8926 25.0004 35.1514 25.8287 36.1106 26.5075C36.7697 26.8882 37.372 26.9229 38.1211 26.8441C38.7002 26.6685 39.0928 26.3455 39.4922 25.8949C39.5484 25.839 39.6045 25.7831 39.6624 25.7255C40.8902 24.4487 41.3846 22.675 41.3906 20.9378C41.3424 19.7899 41.0435 18.6096 40.2239 17.7589C40.0215 17.601 39.8239 17.4725 39.5977 17.3519C39.5128 17.304 39.428 17.2562 39.3406 17.2069C38.2188 16.9333 37.08 17.322 36.3281 18.1956ZM7.56113 18.3048C6.68214 19.6908 6.71116 21.5115 7.03461 23.0798C7.41477 24.4511 8.18425 25.7187 9.44515 26.4449C10.1677 26.8154 10.8654 27.011 11.6719 26.7757C12.5116 26.3971 13.0027 25.6758 13.336 24.8402C13.9014 22.9253 13.5908 20.8391 12.6566 19.1012C12.1504 18.2613 11.4905 17.7349 10.607 17.3123C9.40667 17.0723 8.33587 17.3018 7.56113 18.3048ZM18.3952 26.2129C18.2775 26.3317 18.16 26.4507 18.0429 26.5701C17.8581 26.7514 17.6966 26.8316 17.5 27C17.1614 27.2915 16.814 27.6864 16.5 28.0042C16.1264 28.3824 15.7432 28.7371 15.3395 29.0824C15.0166 29.3699 14.7175 29.6802 14.4145 29.9884C14.1988 30.2003 13.9767 30.3947 13.7446 30.5882C12.7317 31.4682 12.0609 32.6288 11.9397 33.9797C11.9025 35.4056 12.3864 36.7902 13.3541 37.8536C14.4238 38.8514 15.5363 39.1334 16.9788 39.1118C18.498 39.0292 20.0172 38.6387 21.4966 38.3047C23.962 37.7492 26.2036 38.1345 28.6289 38.6566C30.6452 39.0791 32.5988 39.422 34.4297 38.2347C35.3494 37.4704 36.0534 36.1502 36.2227 34.9652C36.3305 33.6889 36.1041 32.5005 35.3208 31.4641C34.5203 30.5474 33.6389 29.703 32.7189 28.9076C32.4876 28.7041 32.2712 28.489 32.0567 28.2679C31.7689 27.9762 31.4781 27.697 31.1668 27.4307C30.8321 27.144 30.5207 26.8412 30.211 26.5277C29.7704 26.0831 29.3195 25.6638 28.8399 25.262C28.7599 25.1926 28.68 25.1231 28.5976 25.0515C25.2215 22.2076 21.2616 23.3686 18.3952 26.2129Z" fill="#00D048"/>
</svg>
